<svg xmlns="http://www.w3.org/2000/svg" xmlns:xlink="http://www.w3.org/1999/xlink" width="500" zoomAndPan="magnify" viewBox="0 0 375 374.999991" height="500" preserveAspectRatio="xMidYMid meet" version="1.0"><defs><g/><clipPath id="4a24d75862"><path d="M 93.433594 58 L 267 58 L 267 245.183594 L 93.433594 245.183594 Z M 93.433594 58 " clip-rule="nonzero"/></clipPath><clipPath id="0dba3b0016"><path d="M 129 54.683594 L 281.683594 54.683594 L 281.683594 211 L 129 211 Z M 129 54.683594 " clip-rule="nonzero"/></clipPath></defs><g clip-path="url(#4a24d75862)"><path fill="#5ce1e6" d="M 266.398438 161.863281 C 262.867188 174.476562 241.679688 209.539062 197.789062 216.601562 C 156.820312 223.195312 111.46875 193.695312 104.460938 148.75 C 98.402344 109.953125 122.757812 71.363281 160.785156 58.269531 C 143.296875 63.882812 117.539062 76.839844 102.945312 106.121094 C 101.445312 109.125 81.589844 150.734375 104.207031 192.386719 C 107.589844 198.625 125.214844 231.089844 163.484375 237.789062 C 206.941406 245.402344 237.558594 212.863281 239.660156 210.546875 C 236.714844 216.042969 230.496094 225.820312 218.976562 233.753906 C 202.601562 245.035156 185.832031 245.496094 179.625 245.355469 C 184.425781 245.609375 219.9375 246.871094 245.464844 218.621094 C 266.339844 195.511719 266.519531 168.167969 266.398438 161.863281 Z M 141.117188 221.8125 C 115.292969 207.753906 107.292969 183.308594 105.804688 178.429688 C 109.332031 185.433594 120.308594 204.953125 144.144531 217.613281 C 168.273438 230.429688 190.890625 228.40625 198.628906 227.367188 C 194.097656 228.789062 168.0625 236.488281 141.117188 221.8125 Z M 141.117188 221.8125 " fill-opacity="1" fill-rule="nonzero"/></g><path fill="#5ce1e6" d="M 130.355469 126.46875 C 126.46875 136.789062 122.078125 153.378906 127.835938 170.195312 C 137.070312 197.179688 166.832031 208.34375 166.175781 209.375 C 165.46875 210.488281 127.78125 201.953125 113.710938 167.839844 C 101.101562 137.273438 116.898438 109.089844 118.921875 105.617188 C 116.3125 110.492188 110.238281 123.445312 112.703125 139.921875 C 113.976562 148.449219 117.101562 155.027344 119.597656 159.261719 C 119.53125 155.042969 119.9375 148.601562 122.457031 141.265625 C 124.738281 134.621094 127.925781 129.671875 130.359375 126.464844 Z M 130.355469 126.46875 " fill-opacity="1" fill-rule="nonzero"/><path fill="#5ce1e6" d="M 174.347656 204.253906 C 185.289062 205.195312 206.753906 206.269531 228.183594 189.109375 C 243.199219 177.082031 249.160156 161.566406 250.296875 147.785156 C 251.464844 133.671875 246.386719 121.339844 243.949219 116.335938 C 250 139.921875 247.1875 155.476562 228.898438 171.117188 C 210.613281 186.753906 185.164062 182.496094 170.421875 189.738281 C 170.421875 189.738281 180.089844 188.183594 185.347656 188.601562 C 190.601562 189.023438 204.097656 188.054688 204.097656 188.054688 C 204.097656 188.054688 191.738281 189.042969 182.40625 193.964844 C 173.074219 198.882812 162.414062 199.195312 162.414062 199.195312 C 162.414062 199.195312 166.191406 203.546875 174.355469 204.25 Z M 174.347656 204.253906 " fill-opacity="1" fill-rule="nonzero"/><g clip-path="url(#0dba3b0016)"><path fill="#5ce1e6" d="M 238.480469 91.570312 C 253.652344 82.503906 273.199219 101.628906 276.230469 104.984375 C 261.851562 77.078125 228.878906 76.792969 221.332031 83.667969 C 221.332031 83.667969 233.523438 62.3125 256.5625 75.429688 C 245.800781 63.574219 218.054688 61.757812 202.332031 72.230469 C 207.351562 65.59375 223.875 54.800781 232.851562 56.320312 C 206.714844 52.75 196.832031 73.789062 175.253906 85.351562 C 188.238281 72.097656 195.382812 54.214844 214.183594 54.914062 C 214.183594 54.914062 192.617188 51.203125 175.761719 73.496094 C 168.191406 83.5 164.410156 87.96875 159.667969 90.480469 C 158.324219 85.988281 169.425781 80.085938 167.011719 68.375 C 167.726562 80.863281 149.097656 84.433594 152.050781 96.269531 C 151.914062 96.105469 148.679688 92.03125 152.21875 85.9375 C 141.308594 97.570312 156.921875 101.894531 139.398438 108.386719 C 143.28125 106.246094 142.859375 102.175781 142.496094 100.507812 C 144.039062 107.152344 133.789062 106.355469 133.722656 111.414062 C 132.699219 108.542969 134.355469 104.789062 134.433594 104.609375 C 134.222656 104.773438 125.015625 112.277344 131.914062 125.035156 C 132.25 122.597656 132.375 121.460938 132.375 121.460938 C 132.375 121.460938 135.824219 128.480469 140.867188 129.195312 C 136.75 124.488281 138.894531 118.726562 138.894531 118.726562 L 144.203125 120.289062 C 144.203125 120.289062 142.71875 117.339844 142.925781 117.425781 C 143.132812 117.507812 147.953125 118.128906 148.101562 118.179688 L 146.503906 115.492188 C 146.503906 115.492188 152.011719 116.035156 151.882812 115.785156 C 151.757812 115.53125 149.570312 112.761719 149.570312 112.761719 C 149.570312 112.761719 149.402344 109.101562 170.003906 112.382812 C 162.605469 115.910156 157.179688 115.699219 157.179688 115.699219 C 161.230469 117.972656 159.085938 119.792969 154.53125 120.402344 L 155.160156 122.199219 L 151.597656 122.957031 L 152.261719 124.691406 C 152.261719 124.691406 147.5 126.507812 143.511719 123.484375 C 145.070312 126.085938 146.710938 125.792969 148.140625 128.90625 C 149.570312 132.015625 152.300781 138.699219 159.957031 136.347656 C 155.371094 135.171875 155.664062 130.671875 155.664062 130.671875 C 155.664062 130.671875 158.652344 135.382812 166.554688 133.613281 C 174.460938 131.847656 181.3125 143.492188 163.949219 146.144531 C 179.515625 146.640625 183 131.640625 167.648438 129.453125 C 160.585938 128.945312 163.277344 122.601562 165.417969 121.929688 C 167.5625 121.253906 172.230469 121.71875 174.628906 123.527344 C 174.628906 123.527344 171.894531 118.183594 165.039062 119.40625 C 174.039062 112.988281 181.824219 124.539062 187.78125 121.511719 C 182.496094 123.207031 178.019531 115.28125 171.117188 114.632812 C 182.570312 108.601562 201.769531 122.519531 196.316406 135.003906 C 196.890625 134.144531 203.101562 124.320312 193.882812 114.316406 C 199.621094 114.566406 206.9375 118.164062 208.703125 124.28125 C 208.828125 115.074219 201.699219 105.046875 187.828125 104.226562 C 198.863281 100.632812 210.027344 108.011719 212.546875 115.957031 L 213.050781 114.484375 C 213.050781 114.484375 214.941406 118.648438 214.101562 125.414062 L 215.070312 124.746094 C 215.070312 124.746094 215.617188 129.410156 212.335938 134.371094 L 213.304688 134.667969 C 213.304688 134.667969 210.214844 140.296875 207.25 142.128906 L 208.28125 142.296875 C 208.28125 142.296875 204.390625 146.183594 201.320312 146.4375 L 202.710938 147.027344 C 202.710938 147.027344 198.296875 150.09375 193.585938 150.007812 L 194.976562 151.058594 C 194.976562 151.058594 186.988281 153.5 182.824219 152.152344 L 184.003906 153.792969 C 177.980469 155.023438 169.527344 152.964844 162.140625 156.609375 C 162.140625 156.609375 166.765625 156.324219 170.214844 158.464844 C 159.113281 156.988281 144.734375 162.621094 142.042969 174.8125 C 148.941406 166.152344 155.75 166.40625 155.75 166.40625 C 155.75 166.40625 145.527344 170.222656 141.117188 183.390625 C 145.660156 190.453125 156.589844 197.597656 156.589844 197.597656 C 168.402344 171.480469 226.5 187.007812 240 149.335938 C 250.929688 121.929688 231.929688 80.726562 188.878906 97.375 C 197.652344 92.738281 199.746094 88.289062 199.808594 88.148438 C 199.699219 88.289062 196.09375 92.710938 188.519531 94.265625 C 200.5 89.21875 198.800781 79.695312 210.972656 75.09375 C 210.972656 75.09375 204.347656 75.382812 192.492188 86.761719 C 184.675781 94.265625 173.957031 95.019531 173.957031 95.019531 C 190.679688 89.03125 198.652344 68.445312 225.03125 70.554688 C 210.972656 75.09375 205.273438 88.296875 205.273438 88.296875 C 266.410156 87.960938 279.265625 184.558594 205.871094 210.796875 C 242.617188 204.226562 290.265625 148.488281 248.746094 102.84375 C 249.191406 103.113281 285.585938 125.6875 264.582031 190.875 C 279.015625 171.957031 278.511719 137.902344 268.925781 118.984375 C 279.773438 131.847656 281.539062 143.703125 281.539062 143.703125 C 281.539062 143.703125 282.292969 101.242188 238.484375 91.570312 Z M 136.324219 115.21875 C 134.894531 115.386719 133.71875 117.21875 133.71875 117.21875 C 133.171875 114.589844 137.207031 111.796875 137.207031 111.796875 L 136.515625 113.855469 C 136.515625 113.855469 137.398438 114.023438 140.699219 112.53125 C 139.6875 113.9375 137.753906 115.050781 136.324219 115.21875 Z M 154.894531 188.28125 C 150.945312 187.308594 147.476562 184.960938 145.097656 181.722656 C 147.457031 177.554688 150.582031 173.808594 154.359375 170.851562 C 156.3125 174.9375 159.40625 178.324219 163.179688 180.664062 C 159.960938 182.519531 157.121094 184.964844 154.894531 188.28125 Z M 170.886719 177.394531 C 165.800781 175.984375 161.574219 172.277344 159.539062 167.347656 C 163.8125 164.886719 168.445312 163.132812 173.195312 161.691406 C 174.402344 167.085938 177.441406 171.703125 181.570312 174.953125 C 177.949219 175.585938 174.328125 176.324219 170.886719 177.394531 Z M 191.667969 173.257812 C 185.453125 171.621094 180.46875 166.570312 179.136719 160.027344 C 184.121094 158.703125 189.042969 157.652344 193.902344 156.03125 C 195.824219 162.304688 200.273438 167.359375 205.957031 170.164062 C 201.28125 171.574219 196.488281 172.449219 191.667969 173.257812 Z M 215.300781 166.394531 C 207.996094 165.980469 201.695312 160.941406 199.6875 153.90625 C 203.308594 152.410156 206.480469 150.953125 209.671875 149.023438 C 213.601562 154.5 219.917969 157.476562 226.347656 157.355469 C 223.304688 161.054688 219.53125 164.15625 215.300781 166.394531 Z M 232.839844 145.425781 C 232.195312 147.507812 231.34375 149.519531 230.316406 151.433594 C 224.277344 153.304688 217.558594 151.105469 213.847656 145.800781 C 215.589844 144.125 216.941406 142.015625 217.992188 139.804688 C 223.332031 141.867188 229.351562 141.539062 234.4375 138.914062 C 234.0625 141.109375 233.515625 143.28125 232.839844 145.421875 Z M 232.769531 120.082031 C 234.167969 124.191406 234.898438 128.066406 234.984375 132.214844 C 230.789062 135.90625 224.921875 136.84375 219.875 134.886719 C 220.550781 132.78125 220.75 130.597656 220.789062 128.371094 C 225.6875 127.203125 229.964844 124.214844 232.769531 120.082031 Z M 225.601562 106.984375 C 227.308594 109.089844 228.808594 111.40625 230.078125 113.832031 C 228.480469 118.304688 224.820312 121.703125 220.367188 123.027344 C 219.921875 120.335938 219.136719 117.675781 218.046875 115.160156 C 221.292969 113.199219 223.90625 110.351562 225.601562 106.988281 Z M 221.652344 102.84375 C 220.546875 106.007812 218.394531 108.710938 215.566406 110.496094 C 212.355469 106.3125 208.683594 100.855469 203.027344 100.214844 C 206.710938 100.394531 214.371094 103.132812 218.046875 103.058594 C 214.707031 102.714844 207.644531 97.59375 204.464844 98.484375 C 211.972656 96.375 219.082031 100.523438 221.652344 102.839844 Z M 160.507812 103.050781 C 157.269531 103.933594 153.441406 104.984375 153.441406 104.984375 C 153.429688 98.738281 163.59375 98.429688 167.988281 94.011719 C 164.289062 99.101562 163.742188 102.167969 160.507812 103.050781 Z M 190.859375 108.433594 C 196.011719 110.179688 200.582031 113.414062 200.890625 113.636719 C 189.632812 107.140625 186.777344 111.355469 176.6875 108.726562 C 176.6875 108.726562 185.519531 106.625 190.859375 108.433594 Z M 177.109375 103.34375 C 180.972656 100.78125 188.917969 100.277344 190.121094 100.203125 C 177.902344 100.917969 179.078125 108.898438 167.1875 106.539062 C 167.1875 106.539062 172.867188 106.160156 177.109375 103.34375 Z M 177.109375 103.34375 " fill-opacity="1" fill-rule="nonzero"/></g><g fill="#5ce1e6" fill-opacity="1"><g transform="translate(98.601561, 295.667997)"><g><path d="M 5.515625 -27.234375 C 5.015625 -28.785156 4.539062 -30.238281 4.09375 -31.59375 C 3.65625 -32.957031 3.148438 -34.21875 2.578125 -35.375 C 2.003906 -36.539062 1.28125 -37.613281 0.40625 -38.59375 L 14.40625 -38.59375 C 13.945312 -38.164062 13.601562 -37.675781 13.375 -37.125 C 13.15625 -36.582031 13.046875 -36.046875 13.046875 -35.515625 C 13.046875 -34.878906 13.195312 -33.929688 13.5 -32.671875 C 13.800781 -31.421875 14.191406 -29.984375 14.671875 -28.359375 C 15.160156 -26.734375 15.675781 -25.039062 16.21875 -23.28125 C 16.769531 -21.519531 17.3125 -19.8125 17.84375 -18.15625 C 18.375 -16.507812 18.828125 -15.03125 19.203125 -13.71875 C 19.816406 -14.382812 20.390625 -15.269531 20.921875 -16.375 C 21.453125 -17.488281 21.921875 -18.710938 22.328125 -20.046875 C 22.742188 -21.378906 23.066406 -22.738281 23.296875 -24.125 C 23.523438 -25.507812 23.640625 -26.800781 23.640625 -28 C 23.640625 -29.863281 23.472656 -31.460938 23.140625 -32.796875 C 22.804688 -34.128906 22.410156 -35.222656 21.953125 -36.078125 C 21.503906 -36.929688 21.113281 -37.5625 20.78125 -37.96875 C 20.445312 -38.382812 20.28125 -38.59375 20.28125 -38.59375 L 29.3125 -38.59375 C 29.3125 -38.59375 29.484375 -38.457031 29.828125 -38.1875 C 30.179688 -37.925781 30.578125 -37.457031 31.015625 -36.78125 C 31.460938 -36.101562 31.859375 -35.144531 32.203125 -33.90625 C 32.546875 -32.664062 32.71875 -31.082031 32.71875 -29.15625 C 32.71875 -26.570312 32.34375 -23.953125 31.59375 -21.296875 C 30.851562 -18.640625 29.898438 -16.039062 28.734375 -13.5 C 27.578125 -10.957031 26.34375 -8.535156 25.03125 -6.234375 C 23.726562 -3.941406 22.503906 -1.863281 21.359375 0 L 13.953125 0 C 13.285156 -2.132812 12.6875 -4.09375 12.15625 -5.875 C 11.625 -7.664062 11.109375 -9.375 10.609375 -11 C 10.117188 -12.625 9.617188 -14.265625 9.109375 -15.921875 C 8.609375 -17.578125 8.0625 -19.320312 7.46875 -21.15625 C 6.882812 -23 6.234375 -25.023438 5.515625 -27.234375 Z M 5.515625 -27.234375 "/></g></g></g><g fill="#5ce1e6" fill-opacity="1"><g transform="translate(134.718262, 295.667997)"><g><path d="M 20.515625 0.59375 C 17.609375 0.59375 14.984375 0.078125 12.640625 -0.953125 C 10.296875 -1.992188 8.28125 -3.425781 6.59375 -5.25 C 4.914062 -7.082031 3.628906 -9.195312 2.734375 -11.59375 C 1.847656 -14 1.40625 -16.570312 1.40625 -19.3125 C 1.40625 -22.0625 1.847656 -24.632812 2.734375 -27.03125 C 3.628906 -29.4375 4.914062 -31.550781 6.59375 -33.375 C 8.28125 -35.207031 10.296875 -36.632812 12.640625 -37.65625 C 14.984375 -38.6875 17.609375 -39.203125 20.515625 -39.203125 C 23.367188 -39.203125 25.992188 -38.800781 28.390625 -38 C 30.796875 -37.195312 32.769531 -35.941406 34.3125 -34.234375 C 33.96875 -33.410156 33.640625 -32.554688 33.328125 -31.671875 C 33.023438 -30.796875 32.753906 -29.984375 32.515625 -29.234375 C 32.273438 -28.492188 32.082031 -27.890625 31.9375 -27.421875 C 31.789062 -26.953125 31.71875 -26.71875 31.71875 -26.71875 C 31.71875 -26.71875 31.535156 -26.960938 31.171875 -27.453125 C 30.816406 -27.953125 30.242188 -28.515625 29.453125 -29.140625 C 28.671875 -29.765625 27.664062 -30.320312 26.4375 -30.8125 C 25.207031 -31.3125 23.726562 -31.5625 22 -31.5625 C 19.945312 -31.5625 18.039062 -31.109375 16.28125 -30.203125 C 14.519531 -29.296875 13.097656 -27.9375 12.015625 -26.125 C 10.941406 -24.3125 10.40625 -22.03125 10.40625 -19.28125 C 10.40625 -18.101562 10.507812 -17.015625 10.71875 -16.015625 C 10.9375 -15.015625 11.242188 -14.101562 11.640625 -13.28125 C 11.503906 -15.519531 11.863281 -17.539062 12.71875 -19.34375 C 13.570312 -21.144531 14.804688 -22.578125 16.421875 -23.640625 C 18.035156 -24.703125 19.894531 -25.234375 22 -25.234375 C 22.820312 -25.234375 23.640625 -25.132812 24.453125 -24.9375 C 25.273438 -24.738281 26 -24.460938 26.625 -24.109375 C 27.25 -23.765625 27.664062 -23.394531 27.875 -23 L 27.875 -14.15625 C 27.082031 -14.851562 25.960938 -15.476562 24.515625 -16.03125 C 23.078125 -16.59375 21.570312 -16.875 20 -16.875 C 18.394531 -16.875 16.953125 -16.664062 15.671875 -16.25 C 14.398438 -15.84375 13.488281 -15.21875 12.9375 -14.375 C 12.394531 -13.539062 12.398438 -12.46875 12.953125 -11.15625 C 14.046875 -9.800781 15.378906 -8.78125 16.953125 -8.09375 C 18.523438 -7.414062 20.207031 -7.078125 22 -7.078125 C 23.726562 -7.078125 25.207031 -7.320312 26.4375 -7.8125 C 27.664062 -8.3125 28.671875 -8.875 29.453125 -9.5 C 30.242188 -10.125 30.816406 -10.679688 31.171875 -11.171875 C 31.535156 -11.671875 31.71875 -11.921875 31.71875 -11.921875 C 31.71875 -11.921875 31.789062 -11.6875 31.9375 -11.21875 C 32.082031 -10.75 32.273438 -10.140625 32.515625 -9.390625 C 32.753906 -8.648438 33.023438 -7.835938 33.328125 -6.953125 C 33.640625 -6.078125 33.96875 -5.226562 34.3125 -4.40625 C 32.769531 -2.695312 30.796875 -1.4375 28.390625 -0.625 C 25.992188 0.1875 23.367188 0.59375 20.515625 0.59375 Z M 20.515625 0.59375 "/></g></g></g><g fill="#5ce1e6" fill-opacity="1"><g transform="translate(172.034854, 295.667997)"><g><path d="M 0.40625 -6.359375 C 0.40625 -8.117188 0.707031 -9.789062 1.3125 -11.375 C 1.925781 -12.96875 2.710938 -14.421875 3.671875 -15.734375 C 4.640625 -17.054688 5.671875 -18.226562 6.765625 -19.25 C 7.859375 -20.28125 8.882812 -21.128906 9.84375 -21.796875 L 4.234375 -33.59375 C 3.753906 -34.613281 3.160156 -35.601562 2.453125 -36.5625 C 1.753906 -37.519531 1.070312 -38.195312 0.40625 -38.59375 L 13.875 -38.59375 C 13.582031 -38.195312 13.539062 -37.523438 13.75 -36.578125 C 13.96875 -35.628906 14.316406 -34.648438 14.796875 -33.640625 C 16.078125 -30.921875 17.367188 -28.203125 18.671875 -25.484375 C 19.984375 -22.765625 21.265625 -20.082031 22.515625 -17.4375 C 22.921875 -18.101562 23.273438 -18.914062 23.578125 -19.875 C 23.890625 -20.832031 24.128906 -21.835938 24.296875 -22.890625 C 24.472656 -23.953125 24.5625 -24.9375 24.5625 -25.84375 C 24.5625 -26.90625 24.40625 -28.003906 24.09375 -29.140625 C 23.789062 -30.273438 23.363281 -31.34375 22.8125 -32.34375 C 22.269531 -33.34375 21.640625 -34.175781 20.921875 -34.84375 C 20.203125 -35.507812 19.414062 -35.921875 18.5625 -36.078125 L 18.5625 -36.28125 C 19.726562 -36.550781 20.992188 -36.863281 22.359375 -37.21875 C 23.722656 -37.582031 25.050781 -37.9375 26.34375 -38.28125 C 27.632812 -38.625 28.734375 -38.929688 29.640625 -39.203125 C 30.171875 -39.203125 30.65625 -38.84375 31.09375 -38.125 C 31.539062 -37.40625 31.890625 -36.507812 32.140625 -35.4375 C 32.390625 -34.375 32.515625 -33.304688 32.515625 -32.234375 C 32.515625 -30.453125 32.203125 -28.757812 31.578125 -27.15625 C 30.953125 -25.5625 30.144531 -24.085938 29.15625 -22.734375 C 28.175781 -21.390625 27.125 -20.203125 26 -19.171875 C 24.875 -18.148438 23.832031 -17.304688 22.875 -16.640625 C 23.332031 -15.679688 24 -14.28125 24.875 -12.4375 C 25.757812 -10.601562 26.945312 -8.109375 28.4375 -4.953125 C 28.914062 -3.972656 29.507812 -3 30.21875 -2.03125 C 30.925781 -1.070312 31.613281 -0.394531 32.28125 0 L 18.84375 0 C 19.101562 -0.394531 19.117188 -1.078125 18.890625 -2.046875 C 18.671875 -3.023438 18.320312 -4.007812 17.84375 -5 L 10.28125 -20.921875 C 9.90625 -20.253906 9.570312 -19.445312 9.28125 -18.5 C 8.988281 -17.550781 8.757812 -16.578125 8.59375 -15.578125 C 8.4375 -14.578125 8.359375 -13.640625 8.359375 -12.765625 C 8.359375 -11.691406 8.507812 -10.585938 8.8125 -9.453125 C 9.125 -8.328125 9.550781 -7.265625 10.09375 -6.265625 C 10.644531 -5.265625 11.285156 -4.429688 12.015625 -3.765625 C 12.753906 -3.097656 13.535156 -2.679688 14.359375 -2.515625 L 14.359375 -2.3125 C 13.210938 -2.050781 11.953125 -1.742188 10.578125 -1.390625 C 9.203125 -1.046875 7.867188 -0.691406 6.578125 -0.328125 C 5.285156 0.0234375 4.1875 0.332031 3.28125 0.59375 C 2.769531 0.59375 2.296875 0.234375 1.859375 -0.484375 C 1.421875 -1.203125 1.066406 -2.09375 0.796875 -3.15625 C 0.535156 -4.226562 0.40625 -5.296875 0.40625 -6.359375 Z M 0.40625 -6.359375 "/></g></g></g><g fill="#5ce1e6" fill-opacity="1"><g transform="translate(207.951578, 295.667997)"><g><path d="M 4.203125 0 C 3.554688 -1.894531 3.023438 -3.675781 2.609375 -5.34375 C 2.203125 -7.007812 1.898438 -8.722656 1.703125 -10.484375 C 1.503906 -12.242188 1.40625 -14.203125 1.40625 -16.359375 C 1.40625 -18.546875 1.679688 -20.738281 2.234375 -22.9375 C 2.796875 -25.132812 3.628906 -27.207031 4.734375 -29.15625 C 5.847656 -31.101562 7.207031 -32.828125 8.8125 -34.328125 C 10.425781 -35.835938 12.300781 -37.023438 14.4375 -37.890625 C 16.570312 -38.765625 18.929688 -39.203125 21.515625 -39.203125 C 22.773438 -39.203125 24.003906 -39.0625 25.203125 -38.78125 C 26.398438 -38.5 27.460938 -38.09375 28.390625 -37.5625 C 29.328125 -37.03125 29.984375 -36.40625 30.359375 -35.6875 L 30.359375 -5 C 30.359375 -4.007812 30.476562 -3.023438 30.71875 -2.046875 C 30.957031 -1.078125 31.304688 -0.394531 31.765625 0 L 19.953125 0 C 20.410156 -0.394531 20.757812 -1.070312 21 -2.03125 C 21.238281 -3 21.359375 -3.972656 21.359375 -4.953125 L 21.359375 -11.515625 L 10.640625 -11.515625 C 10.929688 -9.253906 11.460938 -7.179688 12.234375 -5.296875 C 13.015625 -3.421875 14.03125 -1.65625 15.28125 0 Z M 10.6875 -19.125 L 21.359375 -19.125 L 21.40625 -30.953125 C 19.644531 -30.953125 18.132812 -30.59375 16.875 -29.875 C 15.625 -29.15625 14.570312 -28.203125 13.71875 -27.015625 C 12.863281 -25.828125 12.195312 -24.546875 11.71875 -23.171875 C 11.238281 -21.804688 10.894531 -20.457031 10.6875 -19.125 Z M 10.6875 -19.125 "/></g></g></g><g fill="#5ce1e6" fill-opacity="1"><g transform="translate(243.108387, 295.667997)"><g><path d="M 0.796875 -38.59375 L 11.203125 -38.59375 L 22.078125 -18.28125 L 22.078125 -33.59375 C 22.078125 -34.613281 21.957031 -35.601562 21.71875 -36.5625 C 21.476562 -37.519531 21.132812 -38.195312 20.6875 -38.59375 L 32.484375 -38.59375 C 32.023438 -38.195312 31.675781 -37.523438 31.4375 -36.578125 C 31.195312 -35.628906 31.078125 -34.648438 31.078125 -33.640625 L 31.078125 -4.953125 C 31.078125 -3.972656 31.195312 -3 31.4375 -2.03125 C 31.675781 -1.070312 32.023438 -0.394531 32.484375 0 L 22.078125 0 L 11.203125 -20.3125 L 11.203125 -5 C 11.203125 -4.007812 11.320312 -3.023438 11.5625 -2.046875 C 11.800781 -1.078125 12.144531 -0.394531 12.59375 0 L 0.796875 0 C 1.253906 -0.394531 1.601562 -1.070312 1.84375 -2.03125 C 2.082031 -3 2.203125 -3.972656 2.203125 -4.953125 L 2.203125 -33.640625 C 2.203125 -34.648438 2.082031 -35.628906 1.84375 -36.578125 C 1.601562 -37.523438 1.253906 -38.195312 0.796875 -38.59375 Z M 0.796875 -38.59375 "/></g></g></g><g fill="#5ce1e6" fill-opacity="1"><g transform="translate(139.801704, 315.889247)"><g><path d="M 0.265625 -2.203125 C 0.554688 -2.554688 0.832031 -2.925781 1.09375 -3.3125 C 1.363281 -3.695312 1.597656 -4.082031 1.796875 -4.46875 C 2.035156 -4.101562 2.328125 -3.765625 2.671875 -3.453125 C 3.015625 -3.140625 3.394531 -2.890625 3.8125 -2.703125 C 4.226562 -2.523438 4.664062 -2.4375 5.125 -2.4375 C 5.445312 -2.4375 5.753906 -2.476562 6.046875 -2.5625 C 6.335938 -2.644531 6.578125 -2.78125 6.765625 -2.96875 C 6.953125 -3.15625 7.046875 -3.398438 7.046875 -3.703125 C 7.046875 -3.984375 6.925781 -4.210938 6.6875 -4.390625 C 6.445312 -4.566406 6.132812 -4.71875 5.75 -4.84375 C 5.363281 -4.976562 4.941406 -5.109375 4.484375 -5.234375 C 4.023438 -5.359375 3.5625 -5.507812 3.09375 -5.6875 C 2.625 -5.863281 2.195312 -6.09375 1.8125 -6.375 C 1.425781 -6.664062 1.113281 -7.035156 0.875 -7.484375 C 0.644531 -7.929688 0.53125 -8.484375 0.53125 -9.140625 C 0.53125 -9.773438 0.675781 -10.335938 0.96875 -10.828125 C 1.269531 -11.328125 1.671875 -11.75 2.171875 -12.09375 C 2.679688 -12.445312 3.25 -12.710938 3.875 -12.890625 C 4.507812 -13.078125 5.15625 -13.171875 5.8125 -13.171875 C 6.675781 -13.171875 7.398438 -13.078125 7.984375 -12.890625 C 8.578125 -12.710938 9.066406 -12.492188 9.453125 -12.234375 C 9.835938 -11.972656 10.164062 -11.722656 10.4375 -11.484375 C 10.21875 -11.140625 9.96875 -10.769531 9.6875 -10.375 C 9.414062 -9.988281 9.164062 -9.570312 8.9375 -9.125 C 8.550781 -9.46875 8.097656 -9.769531 7.578125 -10.03125 C 7.054688 -10.300781 6.492188 -10.4375 5.890625 -10.4375 C 5.597656 -10.4375 5.300781 -10.394531 5 -10.3125 C 4.707031 -10.238281 4.460938 -10.109375 4.265625 -9.921875 C 4.066406 -9.742188 3.96875 -9.507812 3.96875 -9.21875 C 3.96875 -8.914062 4.082031 -8.671875 4.3125 -8.484375 C 4.539062 -8.296875 4.84375 -8.144531 5.21875 -8.03125 C 5.601562 -7.914062 6.019531 -7.800781 6.46875 -7.6875 C 6.925781 -7.570312 7.378906 -7.429688 7.828125 -7.265625 C 8.285156 -7.109375 8.703125 -6.894531 9.078125 -6.625 C 9.460938 -6.351562 9.769531 -6.003906 10 -5.578125 C 10.226562 -5.148438 10.34375 -4.613281 10.34375 -3.96875 C 10.34375 -3.082031 10.109375 -2.328125 9.640625 -1.703125 C 9.179688 -1.085938 8.550781 -0.613281 7.75 -0.28125 C 6.945312 0.0390625 6.046875 0.203125 5.046875 0.203125 C 4.472656 0.203125 3.921875 0.132812 3.390625 0 C 2.859375 -0.144531 2.375 -0.332031 1.9375 -0.5625 C 1.5 -0.789062 1.132812 -1.050781 0.84375 -1.34375 C 0.550781 -1.632812 0.359375 -1.921875 0.265625 -2.203125 Z M 0.265625 -2.203125 "/></g></g></g><g fill="#5ce1e6" fill-opacity="1"><g transform="translate(153.415703, 315.889247)"><g><path d="M 0.265625 -12.96875 L 9.9375 -12.96875 L 9.9375 -9.65625 C 9.726562 -9.863281 9.484375 -10.019531 9.203125 -10.125 C 8.921875 -10.238281 8.640625 -10.316406 8.359375 -10.359375 C 8.078125 -10.398438 7.828125 -10.421875 7.609375 -10.421875 L 6.59375 -10.421875 L 6.59375 -1.671875 C 6.59375 -1.335938 6.632812 -1.007812 6.71875 -0.6875 C 6.800781 -0.363281 6.914062 -0.132812 7.0625 0 L 3.109375 0 C 3.253906 -0.132812 3.367188 -0.363281 3.453125 -0.6875 C 3.535156 -1.019531 3.578125 -1.351562 3.578125 -1.6875 L 3.578125 -10.421875 L 2.609375 -10.421875 C 2.390625 -10.421875 2.140625 -10.398438 1.859375 -10.359375 C 1.578125 -10.316406 1.296875 -10.238281 1.015625 -10.125 C 0.742188 -10.019531 0.492188 -9.863281 0.265625 -9.65625 Z M 0.265625 -12.96875 "/></g></g></g><g fill="#5ce1e6" fill-opacity="1"><g transform="translate(166.532483, 315.889247)"><g><path d="M 0.140625 -12.96875 L 4.09375 -12.96875 C 3.945312 -12.832031 3.832031 -12.601562 3.75 -12.28125 C 3.664062 -11.957031 3.625 -11.625 3.625 -11.28125 L 3.625 -5.140625 C 3.625 -4.660156 3.65625 -4.222656 3.71875 -3.828125 C 3.789062 -3.441406 3.945312 -3.132812 4.1875 -2.90625 C 4.4375 -2.675781 4.828125 -2.5625 5.359375 -2.5625 C 5.898438 -2.5625 6.289062 -2.675781 6.53125 -2.90625 C 6.769531 -3.132812 6.921875 -3.441406 6.984375 -3.828125 C 7.054688 -4.222656 7.09375 -4.660156 7.09375 -5.140625 L 7.09375 -11.28125 C 7.09375 -11.625 7.050781 -11.957031 6.96875 -12.28125 C 6.894531 -12.601562 6.78125 -12.832031 6.625 -12.96875 L 10.59375 -12.96875 C 10.4375 -12.832031 10.316406 -12.601562 10.234375 -12.28125 C 10.160156 -11.96875 10.125 -11.640625 10.125 -11.296875 L 10.125 -4.125 C 10.125 -3.34375 10.007812 -2.691406 9.78125 -2.171875 C 9.550781 -1.648438 9.253906 -1.226562 8.890625 -0.90625 C 8.535156 -0.59375 8.15625 -0.351562 7.75 -0.1875 C 7.34375 -0.03125 6.957031 0.0703125 6.59375 0.125 C 6.238281 0.1875 5.945312 0.21875 5.71875 0.21875 C 5.488281 0.21875 5.375 0.21875 5.375 0.21875 C 5.375 0.21875 5.253906 0.21875 5.015625 0.21875 C 4.785156 0.21875 4.488281 0.1875 4.125 0.125 C 3.769531 0.0703125 3.390625 -0.03125 2.984375 -0.1875 C 2.578125 -0.351562 2.191406 -0.59375 1.828125 -0.90625 C 1.472656 -1.226562 1.179688 -1.648438 0.953125 -2.171875 C 0.722656 -2.691406 0.609375 -3.34375 0.609375 -4.125 L 0.609375 -11.296875 C 0.609375 -11.640625 0.566406 -11.96875 0.484375 -12.28125 C 0.398438 -12.601562 0.285156 -12.832031 0.140625 -12.96875 Z M 0.140625 -12.96875 "/></g></g></g><g fill="#5ce1e6" fill-opacity="1"><g transform="translate(180.159915, 315.889247)"><g><path d="M 0.265625 0 C 0.421875 -0.132812 0.535156 -0.363281 0.609375 -0.6875 C 0.691406 -1.019531 0.734375 -1.351562 0.734375 -1.6875 L 0.734375 -11.28125 C 0.734375 -11.625 0.691406 -11.957031 0.609375 -12.28125 C 0.535156 -12.601562 0.421875 -12.832031 0.265625 -12.96875 L 4.6875 -12.96875 C 5.613281 -12.96875 6.4375 -12.800781 7.15625 -12.46875 C 7.875 -12.144531 8.484375 -11.6875 8.984375 -11.09375 C 9.492188 -10.507812 9.878906 -9.820312 10.140625 -9.03125 C 10.398438 -8.25 10.53125 -7.398438 10.53125 -6.484375 C 10.53125 -5.566406 10.398438 -4.710938 10.140625 -3.921875 C 9.878906 -3.128906 9.492188 -2.441406 8.984375 -1.859375 C 8.484375 -1.273438 7.875 -0.816406 7.15625 -0.484375 C 6.4375 -0.160156 5.613281 0 4.6875 0 Z M 3.765625 -2.546875 L 4.96875 -2.546875 C 5.425781 -2.546875 5.847656 -2.703125 6.234375 -3.015625 C 6.617188 -3.335938 6.925781 -3.789062 7.15625 -4.375 C 7.394531 -4.96875 7.515625 -5.671875 7.515625 -6.484375 C 7.515625 -7.296875 7.394531 -7.992188 7.15625 -8.578125 C 6.925781 -9.160156 6.617188 -9.613281 6.234375 -9.9375 C 5.847656 -10.257812 5.425781 -10.421875 4.96875 -10.421875 L 3.765625 -10.421875 Z M 3.765625 -2.546875 "/></g></g></g><g fill="#5ce1e6" fill-opacity="1"><g transform="translate(194.069557, 315.889247)"><g><path d="M 0.265625 0 C 0.421875 -0.132812 0.535156 -0.363281 0.609375 -0.6875 C 0.691406 -1.019531 0.734375 -1.351562 0.734375 -1.6875 L 0.734375 -11.28125 C 0.734375 -11.625 0.691406 -11.957031 0.609375 -12.28125 C 0.535156 -12.601562 0.421875 -12.832031 0.265625 -12.96875 L 4.234375 -12.96875 C 4.078125 -12.832031 3.957031 -12.601562 3.875 -12.28125 C 3.800781 -11.96875 3.765625 -11.640625 3.765625 -11.296875 L 3.765625 -1.671875 C 3.765625 -1.335938 3.800781 -1.007812 3.875 -0.6875 C 3.957031 -0.363281 4.078125 -0.132812 4.234375 0 Z M 0.265625 0 "/></g></g></g><g fill="#5ce1e6" fill-opacity="1"><g transform="translate(201.475031, 315.889247)"><g><path d="M 0.46875 -6.484375 C 0.46875 -7.398438 0.585938 -8.265625 0.828125 -9.078125 C 1.066406 -9.890625 1.425781 -10.601562 1.90625 -11.21875 C 2.394531 -11.832031 3.023438 -12.3125 3.796875 -12.65625 C 4.566406 -13 5.484375 -13.171875 6.546875 -13.171875 C 7.609375 -13.171875 8.519531 -13 9.28125 -12.65625 C 10.050781 -12.3125 10.679688 -11.832031 11.171875 -11.21875 C 11.660156 -10.601562 12.023438 -9.890625 12.265625 -9.078125 C 12.503906 -8.265625 12.625 -7.398438 12.625 -6.484375 C 12.625 -5.554688 12.503906 -4.6875 12.265625 -3.875 C 12.023438 -3.070312 11.660156 -2.363281 11.171875 -1.75 C 10.679688 -1.132812 10.050781 -0.65625 9.28125 -0.3125 C 8.519531 0.03125 7.609375 0.203125 6.546875 0.203125 C 5.484375 0.203125 4.566406 0.03125 3.796875 -0.3125 C 3.023438 -0.65625 2.394531 -1.132812 1.90625 -1.75 C 1.425781 -2.363281 1.066406 -3.070312 0.828125 -3.875 C 0.585938 -4.6875 0.46875 -5.554688 0.46875 -6.484375 Z M 3.5 -6.484375 C 3.5 -5.742188 3.601562 -5.0625 3.8125 -4.4375 C 4.019531 -3.8125 4.347656 -3.316406 4.796875 -2.953125 C 5.242188 -2.585938 5.820312 -2.40625 6.53125 -2.40625 C 7.25 -2.40625 7.832031 -2.585938 8.28125 -2.953125 C 8.738281 -3.316406 9.070312 -3.8125 9.28125 -4.4375 C 9.488281 -5.0625 9.59375 -5.742188 9.59375 -6.484375 C 9.59375 -7.242188 9.488281 -7.929688 9.28125 -8.546875 C 9.070312 -9.160156 8.738281 -9.648438 8.28125 -10.015625 C 7.832031 -10.390625 7.25 -10.578125 6.53125 -10.578125 C 5.820312 -10.578125 5.242188 -10.390625 4.796875 -10.015625 C 4.347656 -9.648438 4.019531 -9.160156 3.8125 -8.546875 C 3.601562 -7.929688 3.5 -7.242188 3.5 -6.484375 Z M 3.5 -6.484375 "/></g></g></g><g fill="#5ce1e6" fill-opacity="1"><g transform="translate(217.467622, 315.889247)"><g><path d="M 2.046875 -10.703125 C 1.671875 -10.703125 1.347656 -10.832031 1.078125 -11.09375 C 0.804688 -11.363281 0.671875 -11.6875 0.671875 -12.0625 C 0.671875 -12.4375 0.804688 -12.757812 1.078125 -13.03125 C 1.347656 -13.300781 1.671875 -13.4375 2.046875 -13.4375 C 2.359375 -13.4375 2.613281 -13.351562 2.8125 -13.1875 C 3.019531 -13.019531 3.171875 -12.800781 3.265625 -12.53125 C 3.359375 -12.257812 3.40625 -11.96875 3.40625 -11.65625 C 3.40625 -11.269531 3.335938 -10.890625 3.203125 -10.515625 C 3.066406 -10.140625 2.863281 -9.832031 2.59375 -9.59375 C 2.320312 -9.351562 1.988281 -9.234375 1.59375 -9.234375 C 1.476562 -9.234375 1.367188 -9.253906 1.265625 -9.296875 C 1.160156 -9.335938 1.085938 -9.390625 1.046875 -9.453125 L 1.078125 -9.484375 C 1.160156 -9.421875 1.28125 -9.390625 1.4375 -9.390625 C 1.539062 -9.390625 1.664062 -9.421875 1.8125 -9.484375 C 1.957031 -9.546875 2.082031 -9.640625 2.1875 -9.765625 C 2.289062 -9.898438 2.34375 -10.066406 2.34375 -10.265625 C 2.34375 -10.367188 2.3125 -10.460938 2.25 -10.546875 C 2.195312 -10.628906 2.128906 -10.679688 2.046875 -10.703125 Z M 2.046875 -10.703125 "/></g></g></g><g fill="#5ce1e6" fill-opacity="1"><g transform="translate(224.456519, 315.889247)"><g><path d="M 0.265625 -2.203125 C 0.554688 -2.554688 0.832031 -2.925781 1.09375 -3.3125 C 1.363281 -3.695312 1.597656 -4.082031 1.796875 -4.46875 C 2.035156 -4.101562 2.328125 -3.765625 2.671875 -3.453125 C 3.015625 -3.140625 3.394531 -2.890625 3.8125 -2.703125 C 4.226562 -2.523438 4.664062 -2.4375 5.125 -2.4375 C 5.445312 -2.4375 5.753906 -2.476562 6.046875 -2.5625 C 6.335938 -2.644531 6.578125 -2.78125 6.765625 -2.96875 C 6.953125 -3.15625 7.046875 -3.398438 7.046875 -3.703125 C 7.046875 -3.984375 6.925781 -4.210938 6.6875 -4.390625 C 6.445312 -4.566406 6.132812 -4.71875 5.75 -4.84375 C 5.363281 -4.976562 4.941406 -5.109375 4.484375 -5.234375 C 4.023438 -5.359375 3.5625 -5.507812 3.09375 -5.6875 C 2.625 -5.863281 2.195312 -6.09375 1.8125 -6.375 C 1.425781 -6.664062 1.113281 -7.035156 0.875 -7.484375 C 0.644531 -7.929688 0.53125 -8.484375 0.53125 -9.140625 C 0.53125 -9.773438 0.675781 -10.335938 0.96875 -10.828125 C 1.269531 -11.328125 1.671875 -11.75 2.171875 -12.09375 C 2.679688 -12.445312 3.25 -12.710938 3.875 -12.890625 C 4.507812 -13.078125 5.15625 -13.171875 5.8125 -13.171875 C 6.675781 -13.171875 7.398438 -13.078125 7.984375 -12.890625 C 8.578125 -12.710938 9.066406 -12.492188 9.453125 -12.234375 C 9.835938 -11.972656 10.164062 -11.722656 10.4375 -11.484375 C 10.21875 -11.140625 9.96875 -10.769531 9.6875 -10.375 C 9.414062 -9.988281 9.164062 -9.570312 8.9375 -9.125 C 8.550781 -9.46875 8.097656 -9.769531 7.578125 -10.03125 C 7.054688 -10.300781 6.492188 -10.4375 5.890625 -10.4375 C 5.597656 -10.4375 5.300781 -10.394531 5 -10.3125 C 4.707031 -10.238281 4.460938 -10.109375 4.265625 -9.921875 C 4.066406 -9.742188 3.96875 -9.507812 3.96875 -9.21875 C 3.96875 -8.914062 4.082031 -8.671875 4.3125 -8.484375 C 4.539062 -8.296875 4.84375 -8.144531 5.21875 -8.03125 C 5.601562 -7.914062 6.019531 -7.800781 6.46875 -7.6875 C 6.925781 -7.570312 7.378906 -7.429688 7.828125 -7.265625 C 8.285156 -7.109375 8.703125 -6.894531 9.078125 -6.625 C 9.460938 -6.351562 9.769531 -6.003906 10 -5.578125 C 10.226562 -5.148438 10.34375 -4.613281 10.34375 -3.96875 C 10.34375 -3.082031 10.109375 -2.328125 9.640625 -1.703125 C 9.179688 -1.085938 8.550781 -0.613281 7.75 -0.28125 C 6.945312 0.0390625 6.046875 0.203125 5.046875 0.203125 C 4.472656 0.203125 3.921875 0.132812 3.390625 0 C 2.859375 -0.144531 2.375 -0.332031 1.9375 -0.5625 C 1.5 -0.789062 1.132812 -1.050781 0.84375 -1.34375 C 0.550781 -1.632812 0.359375 -1.921875 0.265625 -2.203125 Z M 0.265625 -2.203125 "/></g></g></g></svg>